<?xml version="1.0" standalone="no"?><!DOCTYPE svg PUBLIC "-//W3C//DTD SVG 1.1//EN" "http://www.w3.org/Graphics/SVG/1.1/DTD/svg11.dtd"><svg t="1587955874874" class="icon" viewBox="0 0 1024 1024" version="1.1" xmlns="http://www.w3.org/2000/svg" p-id="1631" xmlns:xlink="http://www.w3.org/1999/xlink" width="200" height="200"><defs><style type="text/css"></style></defs><path d="M515.1 507.6m-438 0a438 438 0 1 0 876 0 438 438 0 1 0-876 0Z" fill="#FE6A19" p-id="1632"></path><path d="M894 469.3c0-141.5-67.2-267.2-171.3-347.3C661 88.6 590.2 69.6 515.1 69.6c-241.9 0-438 196.1-438 438 0 141.5 67.2 267.2 171.3 347.3 61.8 33.4 132.5 52.3 207.7 52.3 241.8 0 437.9-196.1 437.9-437.9z" fill="#FF9843" p-id="1633"></path><path d="M894 469.3c0-128.3-55.2-243.4-143-323.5-54.4-24.2-114.5-37.8-177.8-37.8-241.9 0-438 196.1-438 438 0 128.2 55.3 243.4 143.1 323.5 54.4 24.2 114.5 37.8 177.8 37.8 241.8-0.1 437.9-196.2 437.9-438z" fill="#FC8308" p-id="1634"></path><path d="M710.9 289.8l-316.8 84.9c-6.1 1.6-10.8 6.4-12.4 12.4l-84.9 316.8c-3.5 13.1 8.4 25 21.5 21.5l316.8-84.9c6.1-1.6 10.8-6.4 12.4-12.4l84.9-316.8c3.5-13-8.4-25-21.5-21.5zM515.2 567.2c-32.9 0-59.5-26.7-59.5-59.5 0-32.9 26.7-59.5 59.5-59.5 32.9 0 59.5 26.7 59.5 59.5s-26.7 59.5-59.5 59.5z" fill="#FFFFFF" p-id="1635"></path></svg>